<svg width="37" height="37" viewBox="0 0 37 37" fill="none" xmlns="http://www.w3.org/2000/svg"><mask id="mask0_315_94" style="mask-type:alpha" maskUnits="userSpaceOnUse" x="0" y="0" width="37" height="37"><rect x="36.1254" y="36.1254" width="36.1254" height="36.1254" transform="rotate(-180 36.1254 36.1254)" fill="#D9D9D9"/></mask><g mask="url(#mask0_315_94)"><path opacity="0.5" d="M13.246 14.2996L11.6279 20.1888L16.6892 23.632L18.2885 17.7428L13.246 14.2996ZM29.4648 5.71982L32.0801 6.6794C32.908 7.01808 33.4568 7.61703 33.7265 8.47626C33.9962 9.3355 33.8927 10.1791 33.416 11.0069L29.4648 20.4146L29.4648 5.71982ZM24.2341 3.6125C25.0871 3.6125 25.8115 3.90414 26.4073 4.48741C27.0031 5.07069 27.301 5.78881 27.301 6.64177V18.5142L22.1833 4.60971C22.108 4.40901 22.0202 4.23341 21.9199 4.08288C21.8195 3.93236 21.6941 3.77557 21.5435 3.6125H24.2341ZM16.0495 4.12051C16.9526 3.79438 17.8212 3.82574 18.6554 4.21459C19.4895 4.60344 20.0822 5.24943 20.4334 6.15257L27.4704 25.1184C27.7965 26.0216 27.7557 26.8996 27.3481 27.7526C26.9404 28.6055 26.285 29.2076 25.3819 29.5589L14.0174 33.6606C13.1143 33.9742 12.23 33.9303 11.3645 33.5289C10.4989 33.1275 9.89058 32.4878 9.53936 31.6097L2.54006 12.6815C2.20138 11.7784 2.22961 10.894 2.62473 10.0285C3.01985 9.16302 3.66271 8.57348 4.5533 8.25989L16.0495 4.12051Z" fill="white"/></g></svg>